<?xml version="1.0" standalone="no"?>
<!DOCTYPE svg PUBLIC "-//W3C//DTD SVG 20010904//EN"
 "http://www.w3.org/TR/2001/REC-SVG-20010904/DTD/svg10.dtd">
<svg version="1.0" xmlns="http://www.w3.org/2000/svg"
 width="412.000000pt" height="412.000000pt" viewBox="0 0 412.000000 412.000000"
 preserveAspectRatio="xMidYMid meet">
<metadata>
Created by potrace 1.14, written by Peter Selinger 2001-2017
</metadata>
<g transform="translate(0.000000,412.000000) scale(0.100000,-0.100000)"
fill="#000000" stroke="none">
<path d="M2136 3302 c-3 -2 -34 -6 -70 -7 -36 -2 -75 -7 -88 -11 -28 -9 -54
-14 -90 -17 -16 -1 -28 -4 -28 -7 0 -3 -12 -6 -27 -7 -15 0 -29 -7 -31 -13 -3
-8 -7 -9 -11 -2 -4 7 -20 5 -46 -5 -22 -8 -48 -15 -57 -14 -10 0 -18 -4 -18
-9 0 -4 -7 -11 -16 -14 -8 -3 -12 -2 -9 4 3 5 -7 3 -21 -5 -15 -8 -31 -12 -36
-9 -4 3 -8 0 -8 -6 0 -7 -7 -10 -15 -6 -8 3 -15 0 -15 -6 0 -6 -3 -8 -6 -5 -4
3 -16 1 -28 -5 -11 -7 -24 -11 -28 -10 -5 1 -8 -2 -8 -6 0 -4 -10 -9 -22 -9
-13 -1 -24 -7 -26 -13 -2 -5 -10 -10 -18 -10 -8 0 -33 -9 -54 -20 -22 -11 -40
-18 -40 -15 0 3 -10 -3 -22 -15 -12 -11 -28 -20 -35 -20 -7 0 -13 -5 -13 -12
0 -6 -3 -8 -6 -5 -4 4 -19 -2 -34 -13 -16 -11 -33 -20 -39 -20 -6 0 -11 -5
-11 -11 0 -5 -4 -7 -10 -4 -5 3 -10 1 -10 -6 0 -7 -3 -10 -6 -6 -4 3 -12 1
-20 -6 -32 -29 -44 -37 -44 -32 0 4 -7 -1 -16 -9 -8 -9 -20 -13 -26 -10 -6 4
-8 2 -4 -4 3 -6 -11 -21 -31 -33 -21 -13 -43 -28 -49 -34 -6 -5 -22 -17 -35
-25 -12 -8 -42 -34 -66 -57 -24 -24 -47 -43 -51 -43 -5 0 -27 -20 -50 -45 -23
-25 -46 -45 -52 -45 -6 0 -8 -4 -5 -10 3 -5 1 -10 -5 -10 -6 0 -8 -5 -5 -10 4
-6 3 -9 -2 -8 -5 2 -22 -9 -38 -24 -16 -16 -27 -28 -23 -28 4 0 -6 -14 -22
-30 -17 -17 -30 -35 -30 -41 0 -6 -4 -8 -9 -4 -5 3 -12 -4 -16 -15 -3 -11 -11
-20 -16 -20 -6 0 -8 -4 -5 -9 3 -5 -6 -16 -19 -25 -14 -9 -23 -21 -20 -25 3
-5 -2 -12 -11 -15 -9 -4 -14 -9 -11 -13 4 -3 -3 -14 -15 -24 -11 -11 -18 -19
-14 -19 4 0 -2 -12 -13 -26 -12 -15 -21 -33 -21 -41 0 -8 -4 -12 -9 -9 -4 3
-14 -7 -20 -22 -7 -15 -11 -28 -9 -29 1 -1 -7 -12 -20 -25 -12 -14 -19 -28
-15 -31 3 -4 -4 -7 -17 -7 -13 0 -21 -3 -17 -6 3 -4 -1 -13 -9 -21 -8 -8 -12
-19 -9 -24 4 -5 3 -9 -2 -9 -9 0 -39 -61 -35 -72 1 -5 -2 -8 -8 -8 -5 0 -10
-7 -10 -15 0 -8 -5 -15 -11 -15 -6 0 -9 -7 -5 -15 3 -8 2 -15 -2 -15 -7 0 -32
-55 -38 -82 -1 -5 -3 -10 -4 -13 -1 -3 -4 -9 -5 -15 -1 -5 -4 -12 -5 -15 -1
-3 -3 -8 -4 -12 -1 -5 -7 -18 -14 -30 -7 -13 -10 -23 -7 -23 2 0 -2 -17 -10
-37 -8 -21 -16 -49 -17 -63 -2 -14 -7 -30 -10 -36 -4 -6 -10 -26 -13 -45 -3
-19 -10 -51 -16 -71 -5 -20 -8 -40 -7 -45 1 -4 -1 -26 -5 -48 -4 -22 -9 -60
-13 -85 -3 -25 -8 -47 -10 -49 -2 -2 1 -10 7 -17 7 -8 7 -14 0 -18 -7 -4 -7
-15 -1 -31 7 -19 7 -114 -1 -160 -5 -26 13 -210 21 -215 10 -6 3898 -6 3905 1
2 3 6 14 8 25 2 10 10 33 16 49 7 17 14 37 16 45 2 8 4 16 5 18 2 1 3 5 4 10
1 4 4 12 7 17 4 6 5 18 4 28 -2 9 1 15 6 11 5 -3 9 1 10 8 0 7 3 22 5 33 2 11
6 29 8 40 2 11 7 28 11 38 4 9 5 26 2 37 -3 11 -1 20 4 20 5 0 8 3 7 7 -1 5 4
47 11 95 7 48 10 92 5 99 -5 8 -3 9 5 4 10 -6 12 43 10 229 -2 130 -6 236 -9
236 -4 0 -7 6 -8 13 -5 54 -22 149 -29 167 -3 8 -8 26 -10 40 -2 13 -8 30 -14
36 -5 6 -6 13 -3 17 3 3 0 15 -6 27 -6 12 -13 29 -15 39 -3 17 -37 98 -56 133
-5 10 -9 24 -9 32 0 8 -8 20 -17 25 -10 6 -15 11 -10 11 8 0 -40 96 -71 140
-9 14 -26 41 -37 60 -11 19 -34 49 -51 67 -18 18 -30 33 -27 33 3 0 -9 14 -26
31 -18 17 -30 33 -27 36 7 7 -14 27 -37 36 -10 4 -15 11 -12 17 3 5 -1 10 -9
10 -8 0 -18 9 -21 20 -3 11 -13 20 -21 20 -8 0 -14 5 -14 10 0 6 -4 10 -9 10
-5 0 -25 15 -44 33 -67 63 -100 87 -126 94 -23 6 -68 29 -81 43 -3 3 -15 11
-27 18 -13 6 -33 18 -45 25 -13 6 -26 16 -29 20 -3 5 -10 8 -15 8 -5 0 -47 18
-93 40 -46 23 -94 42 -107 43 -13 0 -24 4 -24 7 0 4 -21 12 -47 19 -27 7 -52
16 -58 19 -12 6 -31 11 -62 14 -13 1 -23 5 -23 8 0 3 -11 5 -25 4 -14 -2 -27
1 -30 5 -3 5 -14 7 -25 5 -11 -2 -20 0 -20 4 0 7 -45 13 -117 15 -18 0 -33 3
-33 6 0 8 -367 9 -374 2z"/>
</g>
</svg>
